# xmcd CD database file
#
# Track frame offsets:
#	150
#	13560
#	26707
#	41197
#	53060
#	62982
#	72187
#	82320
#	95482
#	108305
#
# Disc length: 1573 seconds
#
# Revision: 5
# Processed by: cddbd v1.5.1PL2 Copyright (c) Steve Scherf et al.
# Submitted via: CDex 1.70beta2
#
DISCID=8906230a
DTITLE=Various Artist - Country Pride: Golden Country
DYEAR=1999
DGENRE=Country
TTITLE0=David Houston - Almost Persuaded
TTITLE1=Kenny Rogers - Ruby Don't Take Your Love To Town
TTITLE2=Lee Greenwood - God Bless The USA
TTITLE3=Jack Greene - All The Time
TTITLE4=Kenny Price - Biloxi
TTITLE5=Johnny Paycheck - Mr. Lovemaker
TTITLE6=Faron Young - Hello Walls
TTITLE7=Bobby Helms - My Special Angel
TTITLE8=Donna Fargo - Don't Be Angry
TTITLE9=Ned Miller - From a Jack to a King
EXTD=YEAR: 1999
EXTT0=
EXTT1=
EXTT2=
EXTT3=
EXTT4=
EXTT5=
EXTT6=
EXTT7=
EXTT8=
EXTT9=
PLAYORDER=
